<svg width="206" height="183" viewBox="0 0 206 183" fill="none" xmlns="http://www.w3.org/2000/svg">
<g clip-path="url(#clip0_63_1218)">
<path d="M98.5 19C125.3 37.1 152.1 55.1 179 73.2C182.8 75.8 186.7 78.4 190.5 81C201.2 88.2 211.2 70.9 200.6 63.7C173.8 45.7 147 27.6 120.2 9.5C116.4 6.9 112.5 4.3 108.7 1.7C97.9 -5.5 87.9 11.8 98.5 19Z" fill="#FAC9D6"/>
<path d="M182.6 106.4C182.6 90.1 182.6 73.7 182.6 57.4C182.6 44.5 162.6 44.5 162.6 57.4C162.6 73.7 162.6 90.1 162.6 106.4C162.6 119.2 182.6 119.2 182.6 106.4Z" fill="#FAC9D6"/>
<path d="M96.5 1.7C69.7 19.8 42.9 37.9 16.1 55.9C12.3 58.5 8.4 61.1 4.6 63.7C-6.1 70.9 3.9 88.2 14.6 81C41.4 62.9 68.2 44.9 95.1 26.8C98.9 24.2 102.8 21.6 106.6 19C117.2 11.8 107.2 -5.5 96.5 1.7Z" fill="#FAC9D6"/>
<path d="M42.6 106.4C42.6 90.1 42.6 73.7 42.6 57.4C42.6 44.5 22.6 44.5 22.6 57.4C22.6 73.7 22.6 90.1 22.6 106.4C22.6 119.2 42.6 119.2 42.6 106.4Z" fill="#FAC9D6"/>
<path d="M43.6 15.4C43.6 22.1 43.6 28.7 43.6 35.4C43.6 48.3 63.6 48.3 63.6 35.4C63.6 28.7 63.6 22.1 63.6 15.4C63.6 2.50001 43.6 2.50001 43.6 15.4Z" fill="#FAC9D6"/>
<path d="M26.9 134C45.9 189.1 129.9 198.7 165.3 155C170.3 148.8 174.9 141.7 177.2 134C180.9 121.6 161.6 116.4 157.9 128.7C157.8 129 157.7 129.3 157.6 129.6C157.5 130 157.3 130.3 157.2 130.7C156.5 132.9 158.4 128.4 157.3 130.5C155.7 133.6 154.2 136.6 152.2 139.5C151.9 140 149.8 142.7 151.4 140.7C150.8 141.5 150.1 142.3 149.4 143.1C147.5 145.2 145.5 147.2 143.4 149.1C142.9 149.5 142.5 149.9 142 150.3C139.7 152.2 142.9 149.7 141.4 150.8C140.2 151.7 139 152.5 137.7 153.3C135.1 154.9 131.7 156.7 129.4 157.7C115.4 163.4 97.6 164.3 82.5 160.1C76.2 158.3 71.1 156.1 65.4 152.2C64.7 151.7 64 151.2 63.3 150.8C61.8 149.7 65 152.2 62.6 150.3C61.6 149.5 60.7 148.7 59.8 147.9C57.7 146 55.7 143.9 53.8 141.7C53.5 141.3 53.1 140.9 52.8 140.5C51.2 138.5 54 142.2 52.5 140.1C51.8 139.2 51.2 138.2 50.5 137.2C49.3 135.4 48.3 133.6 47.3 131.7C47.2 131.4 45.4 128.4 45.6 128.2C45.5 128.3 46.7 131.2 45.9 128.9C44.1 123.8 39 120.4 33.6 121.9C29 123.1 25.2 128.9 26.9 134Z" fill="#FBAE17"/>
</g>
<defs>
<clipPath id="clip0_63_1218">
<rect width="205.2" height="182.5" fill="white"/>
</clipPath>
</defs>
</svg>
