<svg width="32" height="32" viewBox="0 0 32 32" fill="none" xmlns="http://www.w3.org/2000/svg">
<path d="M25.2606 19.7167C24.6237 19.0535 23.8555 18.6989 23.0413 18.6989C22.2336 18.6989 21.4588 19.0469 20.7956 19.7101L18.7207 21.7785C18.55 21.6865 18.3793 21.6012 18.2151 21.5158C17.9787 21.3976 17.7555 21.286 17.565 21.1678C15.6214 19.9333 13.8551 18.3246 12.161 16.2431C11.3403 15.2057 10.7887 14.3324 10.3882 13.4459C10.9266 12.9535 11.4256 12.4413 11.9115 11.9488C12.0954 11.765 12.2792 11.5746 12.4631 11.3907C13.842 10.0118 13.842 8.22578 12.4631 6.84688L10.6705 5.0543C10.467 4.85075 10.2568 4.64063 10.0599 4.43051C9.66588 4.0234 9.25221 3.60316 8.82541 3.20919C8.18849 2.57883 7.42681 2.24396 6.62573 2.24396C5.82465 2.24396 5.04983 2.57883 4.39321 3.20919C4.38665 3.21576 4.38665 3.21576 4.38008 3.22232L2.14757 5.47454C1.30709 6.31501 0.827757 7.33934 0.722698 8.52783C0.565109 10.4452 1.1298 12.2312 1.56317 13.4C2.6269 16.2694 4.21593 18.9287 6.58633 21.7785C9.46233 25.2126 12.9227 27.9244 16.8756 29.8352C18.3858 30.5509 20.4016 31.398 22.6539 31.5424C22.7918 31.549 22.9362 31.5555 23.0675 31.5555C24.5843 31.5555 25.8582 31.0106 26.8562 29.9271C26.8628 29.914 26.8759 29.9074 26.8825 29.8943C27.2239 29.4806 27.6179 29.1063 28.0316 28.7058C28.3139 28.4366 28.6029 28.1542 28.8852 27.8588C29.5353 27.1824 29.8767 26.3945 29.8767 25.5869C29.8767 24.7726 29.5287 23.9913 28.8655 23.3346L25.2606 19.7167ZM27.6114 26.6309C27.6048 26.6309 27.6048 26.6375 27.6114 26.6309C27.3553 26.9067 27.0926 27.1562 26.8103 27.432C26.3835 27.8391 25.9501 28.2659 25.543 28.7452C24.8798 29.4544 24.0984 29.7892 23.0741 29.7892C22.9756 29.7892 22.8705 29.7892 22.7721 29.7827C20.8219 29.6579 19.0096 28.8962 17.6504 28.2462C13.9339 26.447 10.6705 23.8928 7.95867 20.6556C5.71959 17.9569 4.22249 15.4618 3.23099 12.7827C2.62033 11.1477 2.39708 9.8739 2.49558 8.67228C2.56124 7.90404 2.85672 7.26711 3.40171 6.72212L5.64079 4.48304C5.96254 4.18099 6.30398 4.01684 6.63886 4.01684C7.05253 4.01684 7.38741 4.26635 7.59753 4.47647C7.60409 4.48304 7.61066 4.4896 7.61723 4.49617C8.01776 4.87044 8.3986 5.25785 8.79914 5.67152C9.0027 5.88164 9.21282 6.09176 9.42293 6.30845L11.2155 8.10102C11.9115 8.79704 11.9115 9.44053 11.2155 10.1366C11.0251 10.327 10.8412 10.5174 10.6508 10.7012C10.0993 11.2659 9.57396 11.7912 9.0027 12.3034C8.98956 12.3165 8.97643 12.3231 8.96987 12.3362C8.40517 12.9009 8.51023 13.4525 8.62842 13.8268C8.63499 13.8465 8.64156 13.8662 8.64812 13.8859C9.11432 15.0152 9.77094 16.079 10.769 17.3463L10.7756 17.3528C12.5879 19.5853 14.4986 21.3254 16.6064 22.6583C16.8756 22.829 17.1514 22.9669 17.414 23.0983C17.6504 23.2165 17.8737 23.3281 18.0641 23.4463C18.0903 23.4594 18.1166 23.4791 18.1429 23.4922C18.3661 23.6039 18.5762 23.6564 18.7929 23.6564C19.3379 23.6564 19.6794 23.3149 19.791 23.2033L22.0366 20.9577C22.2599 20.7344 22.6145 20.4652 23.0281 20.4652C23.4352 20.4652 23.7701 20.7213 23.9737 20.9445C23.9802 20.9511 23.9802 20.9511 23.9868 20.9577L27.6048 24.5757C28.2811 25.2454 28.2811 25.9349 27.6114 26.6309Z" fill="#FBAE17"/>
<path d="M17.4862 7.84491C19.2066 8.13382 20.7693 8.94803 22.0169 10.1956C23.2645 11.4432 24.0722 13.006 24.3676 14.7263C24.4399 15.1597 24.8141 15.4617 25.2409 15.4617C25.2935 15.4617 25.3394 15.4551 25.392 15.4486C25.8779 15.3698 26.1996 14.9102 26.1208 14.4243C25.7662 12.3428 24.7813 10.4451 23.2776 8.94146C21.774 7.4378 19.8763 6.45287 17.7948 6.09829C17.3089 6.0195 16.8559 6.34124 16.7705 6.82058C16.6851 7.29991 17.0003 7.76611 17.4862 7.84491Z" fill="#FBAE17"/>
<path d="M31.7481 14.1682C31.1637 10.7407 29.5484 7.62171 27.0664 5.13968C24.5844 2.65765 21.4654 1.04237 18.0378 0.457972C17.5585 0.372611 17.1054 0.700922 17.0201 1.18026C16.9413 1.66616 17.263 2.11922 17.7489 2.20459C20.8088 2.72332 23.5994 4.17445 25.8188 6.38726C28.0382 8.60664 29.4828 11.3973 30.0015 14.4571C30.0737 14.8905 30.448 15.1926 30.8748 15.1926C30.9273 15.1926 30.9733 15.186 31.0258 15.1794C31.5052 15.1072 31.8335 14.6476 31.7481 14.1682Z" fill="#FBAE17"/>
</svg>
